# xmcd
#
# Track frame offsets:
#	150
#	17325
#	40501
#	56327
#	75303
#	92479
#	111905
#	135456
#	146257
#	160733
#	178059
#	195085
#
# Disc length: 2964 seconds
#
# Revision: 1
# Processed by: cddbd v1.4PL0 Copyright (c) Steve Scherf et al.
# Submitted via: audiograbber 1.81.02
#
DISCID=7d0b920c
DTITLE=Big Shot - Big George Jackson
DYEAR=2001
DGENRE=Blues
TTITLE0=St Paul Woman
TTITLE1=Big Shot
TTITLE2=What You Got
TTITLE3=If I Could Change
TTITLE4=I Found True Love
TTITLE5=Hard Hearted Woman
TTITLE6=20 Years
TTITLE7=Friday Evening.wav
TTITLE8=The Daddy
TTITLE9=Dirty Haints
TTITLE10=Tell Me
TTITLE11=Untitled Track
EXTD=
EXTT0=
EXTT1=
EXTT2=
EXTT3=
EXTT4=
EXTT5=
EXTT6=
EXTT7=
EXTT8=
EXTT9=
EXTT10=
EXTT11=
PLAYORDER=
